<svg width="180" height="180" viewBox="0 0 180 180" xmlns="http://www.w3.org/2000/svg" fill="none" role="img" aria-label="pixel capsule">
  <rect width="180" height="180" fill="#07121c"/>
  <rect x="28" y="36" width="124" height="108" rx="16" fill="#0d1e2e" stroke="#39e6ff" stroke-width="4"/>
  <rect x="44" y="52" width="92" height="44" fill="#132238" stroke="#61ffbe" stroke-width="3"/>
  <rect x="44" y="52" width="92" height="8" fill="#1e3a54"/>
  <rect x="60" y="84" width="60" height="52" fill="#1a2f45" stroke="#2fd8c5" stroke-width="2"/>
  <rect x="68" y="100" width="44" height="26" fill="#102437"/>
  <circle cx="90" cy="120" r="9" fill="#ff5ab7"/>
  <rect x="40" y="118" width="14" height="8" fill="#ffd166"/>
  <rect x="126" y="118" width="14" height="8" fill="#ffd166"/>
  <rect x="88" y="40" width="4" height="8" fill="#61ffbe"/>
  <rect x="96" y="40" width="4" height="8" fill="#61ffbe"/>
  <rect x="104" y="40" width="4" height="8" fill="#61ffbe"/>
  <rect x="92" y="32" width="4" height="8" fill="#61ffbe"/>
  <rect x="60" y="138" width="60" height="10" fill="#3be7ff" opacity="0.8"/>
  <circle cx="90" cy="128" r="22" stroke="#7dffb8" stroke-width="2" fill="none"/>
  <circle cx="90" cy="128" r="16" fill="#0d253a"/>
  <rect x="78" y="120" width="24" height="16" fill="#7dffb8"/>
  <rect x="84" y="126" width="12" height="2" fill="#0b1a2b"/>
</svg>